<svg xmlns="http://www.w3.org/2000/svg" viewBox="0 0 50 50">
        <path d="m29.6 9.1c-2.5-2-5.8-3.1-9.2-3.1s-6.7 1.1-9.2 3.2c-.5.4-1.1.9-1.5 1.4-5 5.6-4.3 14 1.6 18.7 2.5 2 5.8 3.1 9.2 3.1s6.7-1.1 9.2-3.2c.5-.4 1-.9 1.5-1.4 2.4-2.7 3.6-6.1 3.3-9.7-.3-3.5-2-6.7-4.9-9z" fill="none"/>
        <path d="m48.7 42.1-11.6-11.7.5-.7c2.5-3.6 3.7-7.8 3.3-12.1-.4-5.1-3-9.8-7.1-13.1-3.8-2.9-8.5-4.5-13.4-4.5-5 0-9.7 1.7-13.4 4.6-.7.7-1.5 1.4-2.1 2.1-7.3 8.1-6.3 20.3 2.3 27.1 3.7 2.9 8.4 4.5 13.2 4.5 2.9 0 5.6-.5 8.2-1.6l.8-.3.6.6.2.2 11.2 11.2c1.1 1.1 2.6 1.6 4.1 1.5 1.1-.1 2.2-.5 3-1.2 1.9-1.7 2-4.7.2-6.6zm-17.5-14.3c-.5.5-1 1-1.5 1.4-2.5 2.1-5.8 3.2-9.2 3.2s-6.6-1.1-9.2-3.1c-5.9-4.7-6.7-13.1-1.6-18.7.5-.5 1-1 1.5-1.4 2.5-2.1 5.8-3.2 9.2-3.2s6.6 1.1 9.2 3.1c2.9 2.3 4.6 5.5 4.9 9s-.8 7-3.3 9.7z" fill="#FFA500"/>
</svg>